<?xml version="1.0" encoding="UTF-8"?>
<svg width="546.61" height="547.66" enable-background="new 0 0 1190.55 841.89" version="1.1" viewBox="0 0 546.61 547.66" xml:space="preserve" xmlns="http://www.w3.org/2000/svg">
<g transform="translate(-312.23 -144.69)">
	<g>
		<polygon points="814.62 232.18 841.52 194.41 814.62 210.27" fill="#ffdc73"/>
		<polygon points="815.1 205.21 841.99 189.3 815.1 177.09" fill="#ffcd47"/>
		<polygon points="815.1 177.09 841.99 189.3 815.1 144.69" fill="#ffdc73"/>
		<polygon points="814.15 232.18 787.26 194.41 814.15 210.27" fill="#e0aa00"/>
		<polygon points="813.68 205.21 786.78 189.3 813.68 177.09" fill="#e0aa00"/>
		<polygon points="813.68 177.09 786.78 189.3 813.68 144.69" fill="#ffbf00"/>
	</g>
	<g>
		<polygon points="342.36 684.2 369.25 646.43 342.36 662.29" fill="#ffdc73"/>
		<polygon points="342.83 657.22 369.72 641.32 342.83 629.11" fill="#ffcd47"/>
		<polygon points="342.83 629.11 369.72 641.32 342.83 596.7" fill="#ffdc73"/>
		<polygon points="341.89 684.2 314.99 646.43 341.89 662.29" fill="#e0aa00"/>
		<polygon points="341.41 657.22 314.52 641.32 341.41 629.11" fill="#e0aa00"/>
		<polygon points="341.41 629.11 314.52 641.32 341.41 596.7" fill="#ffbf00"/>
	</g><g clip-rule="evenodd" fill="none" fill-rule="evenodd" stroke-miterlimit="10" stroke-width="1.8419"><g stroke="#ffdc73">
	
	
		
	
		<line x1="544.59" x2="572.53" y1="435.91" y2="417.7"/><line x1="595.28" x2="595.29" y1="152.18" y2="202.38"/><line x1="363.21" x2="473.07" y1="554.14" y2="482.53"/><line x1="752.62" x2="827.37" y1="505.41" y2="554.14"/></g><polygon points="595.28 152.18 827.36 286.16 827.36 554.14 595.28 688.13 363.21 554.14 363.21 286.16" stroke="#ffbf00"/>
	
		
	
		
	
		<line x1="617.71" x2="700.06" y1="418.95" y2="471.16" stroke="#ffdc73"/>
	
		
	</g><g clip-rule="evenodd" fill="none" fill-rule="evenodd" stroke-miterlimit="10" stroke-width="1.8691">
		
			
		<g stroke="#ffdc73">
			
				<line x1="796.81" x2="827.36" y1="673.63" y2="653.71"/>
			
				<polyline points="827.36 620.71 827.36 653.71 857.91 673.63"/>
		</g><polygon points="827.36 620.71 857.91 638.35 857.91 673.63 827.36 691.26 796.81 673.63 796.81 638.35" stroke="#ffbf00"/>
	</g>
	<g clip-rule="evenodd" fill="none" fill-rule="evenodd" stroke-miterlimit="10" stroke-width="1.8691">
		
			
		<g stroke="#ffdc73">
			
				<line x1="313.17" x2="343.71" y1="199.12" y2="179.21"/>
			
				<polyline points="343.71 146.21 343.72 179.21 374.26 199.12"/>
		</g><polygon points="343.71 146.21 374.26 163.85 374.26 199.12 343.71 216.76 313.16 199.12 313.16 163.85" stroke="#ffbf00"/>
	</g>
	
		<g>
			<polygon points="595.99 449.45 671.47 343.45 595.99 387.97" fill="#ffdc73"/>
			<polygon points="597.32 373.75 672.79 329.1 597.32 294.83" fill="#ffcd47"/>
			<polygon points="597.32 294.83 672.79 329.1 597.32 203.9" fill="#ffdc73"/>
			<polygon points="594.67 449.45 519.2 343.45 594.67 387.97" fill="#e0aa00"/>
			<polygon points="593.33 373.75 517.87 329.1 593.33 294.83" fill="#e0aa00"/>
			<polygon points="593.33 294.83 517.87 329.1 593.33 203.9" fill="#ffbf00"/>
		</g>
		<g clip-rule="evenodd" fill="#ffdc73" fill-rule="evenodd">
			<path d="m610.35 539.09c-1.206 11.742-2.139 23.161-3.61 34.513-1.177 9.083-2.407 18.169-3.78 27.227 0.049 4e-3 0.093-0.011 0.143-7e-3 0.578 0.025 1.149 0.146 1.697 0.335 2.684-19.173 4.6-38.47 6.926-57.697 0.204-1.687 0.293-3.728 1-4.857-0.148-0.491 2.254-11.271-0.664-21.577-2.986-10.547-11.297-20.622-11.423-21.126-0.714 0.128 0.505 4.8-0.218 4.898 0.013 0.865 8.063 17.107 7.979 17.969 0.187-5e-3 1.765 20.318 1.95 20.322z"/>
			<path d="m603 498.87c-0.325-0.854-33.688-39.989-33.911-40.872-1.657-2.291-0.911-1.205-2.378-3.669-0.778-1.308-2.972-3.147-2.702-3.877-0.671-0.623 0 0-0.579-0.688-0.181 0.061-0.925-0.559-1.108-0.502-7.477-4.788-17.906-14.821-23.796-22.978-10.18-14.095-19.982-28.539-34.754-37.571 0.25-3.522 1.411-6.889 0.46-9.479-1.502-4.096-5.29-1.685-9.05-0.968 2.19-1.414 3.656-2.334 5.096-3.294 5.881-3.92 9.19-9.372 9.614-16.46 0.349-5.855-1.584-7.725-7.181-6.092-6.962 2.031-13.739 4.688-20.59 7.095-2.417 0.849-4.815 1.761-7.497 2.743 2.983-11.614 5.837-22.757 8.712-33.896 1.219-4.736 0.215-9.035-1.889-13.39-1.619-3.349-4.277-3.244-7.197-3.667-2.884-0.418-4.956-0.064-6.193 2.813-0.869 2.019-2.033 3.913-2.822 5.958-1.48 3.839-3.49 7.162-6.537 10.093-3.03 2.921-6.533 6.19-7.771 9.976-5.224 15.982-9.604 32.239-14.467 48.343-1.165 3.858-1.21 7.417 1.223 10.635 1.944 2.574 1.343 4.614-0.67 6.605-3.054 3.019-3.439 6.533-1.847 10.318 2.042 4.859 3.842 9.878 6.421 14.445 7.953 14.077 15.977 28.124 24.47 41.88 4.404 7.137 8.635 14.479 15.606 19.819 13.377 10.253 26.598 20.721 39.572 31.472 8.335 6.907 15.432 15.047 20.896 24.496 5.147 8.893 7.499 18.108 4.868 28.464-1.844 7.269-3.604 14.557-5.348 21.849 0.582-0.091 1.168-0.109 1.752-0.058 1.869-7.468 3.742-14.934 5.625-22.396 2.548-10.085 0.151-19.137-4.75-27.881-6.235-11.118-14.779-20.272-24.525-28.271-12.514-10.273-25.39-20.113-37.978-30.305-2.039-1.646-3.897-3.917-4.974-6.293-8.044-17.735-15.714-35.646-23.878-53.325-2.07-4.486-2.161-8.398 0.027-12.543 3.654-6.902 7.547-13.684 11.041-20.667 2.399-4.795 6.248-7.535 11.087-9.209 7.489-2.592 14.977-5.2 22.517-7.65 1.446-0.471 3.116-0.249 4.684-0.344-5e-3 1.588 0.275 3.237-0.057 4.753-2.316 10.521-9.93 15.553-19.445 18.655-1.165 0.378-2.628 1.367-2.988 2.409-1.946 5.606-3.722 11.282-5.244 17.021-0.437 1.658-0.179 3.701 0.354 5.379 1.86 5.866 3.972 11.658 6.022 17.468 0.213 0.603 0.666 1.121 1.007 1.68 0.294-0.08 0.588-0.164 0.882-0.247-0.11-1.063-0.046-2.188-0.362-3.185-1.312-4.087-2.208-8.422-4.24-12.131-3.849-7.033-0.48-12.995 1.521-19.589 14.537 17.158 45.669 37.236 54.344 34.938-0.533-0.511-0.902-0.987-1.376-1.301-2.515-1.648-5.153-3.125-7.549-4.922-1.66-1.241-3.008-2.902-4.481-4.388-5.726-5.779-11.669-11.36-17.098-17.404-4.383-4.873-7.583-10.569-7.979-17.383-0.062-1.013 0.064-2.275 0.624-3.046 1.919-2.636 4.065-5.108 6.323-7.881 1.258 0.834 2.446 1.564 3.574 2.383 8.645 6.272 15.831 13.978 21.968 22.669 8.845 12.537 18.162 24.58 30.609 33.929 3.238 2.435 4.828 6.37 7.794 9.842-0.221 0.059 0.219-0.059 0 0 0.829 0.491 35.294 43.556 36.066 44.163 0.341-0.073 0.116-4.402 0.452-4.471zm-131.83-135.33c0.249-7.283-0.159-14.749 6.48-20.936-1.688 7.695-2.975 14.651-6.48 20.936zm3.889-49.753c-2.742 2.713-5.188 5.139-7.909 7.835 1.617-7.333 3.345-9.167 7.909-7.835zm-37.102 76.292c4.987-16.5 9.537-33.137 14.818-49.54 1.088-3.377 4.423-6.153 7.057-8.885 5.861-6.08 11.93-11.957 18.109-18.108 3.674 4.444 5.246 9.292 3.41 14.524-1.732 4.939-3.764 9.931-6.613 14.276-3.253 4.957-5.219 10.046-5.542 15.894-0.182 3.302-0.657 6.075-3.628 8.768-3.828 3.465-6.319 8.397-9.435 12.66-4.99 6.821-10.028 13.613-15.227 20.664-2.366-3.344-4.181-6.17-2.949-10.253zm36.36-4.466c-5.45 2.177-9.682 5.343-12.375 10.685-3.122 6.184-6.621 12.177-9.882 18.292-2.996 5.618-3.59 10.904-0.509 17.184 6.733 13.715 12.527 27.891 18.695 41.884 0.203 0.46 0.29 0.975 0.431 1.464-0.129 0.072-0.261 0.142-0.393 0.215-0.958-1.429-1.999-2.813-2.864-4.297-7.946-13.565-16.046-27.045-23.683-40.782-2.966-5.338-5.009-11.213-7.148-16.966-0.473-1.265-0.038-3.379 0.778-4.529 9.187-12.924 18.467-25.784 27.911-38.52 1.344-1.812 3.49-3.361 5.597-4.213 8.875-3.591 17.868-6.882 26.83-10.253 1.23-0.464 2.512-0.816 3.795-1.119 6.343-1.504 7.292-0.628 6.189 5.795-0.832 4.863-3.032 8.97-7.162 11.806-2.714 1.865-5.456 3.757-8.398 5.21-5.85 2.894-11.757 5.725-17.812 8.144zm37.155 44.613c3.762 3.648 7.666 7.146 11.248 11.006-11.452-4.696-21.572-11.395-30.706-19.542-3.351-2.988-6.491-6.282-9.302-9.776-3.156-3.922-2.3-5.974 2.302-7.673 2.756-1.017 5.388-2.377 8.334-3.702 1.482 12.896 9.603 21.429 18.124 29.687z"/>
		</g>
		<path d="m772.57 357.91c-10.271-18.993-20.338-38.092-30.592-57.094-0.873-1.615-2.545-2.799-4.056-4.406 0.023-0.183 0.06-0.394 0.084-0.582-0.148-0.031-0.296-0.044-0.447-0.079-0.628-0.147-1.238-0.336-1.842-0.531-1.05 3.222-2.94 6.326-4.445 9.79-5.291-6.14-9.955-11.71-14.827-17.094-1.031-1.142-2.506-1.892-3.984-2.774-1.008 0.52-2.039 0.991-3.098 1.417l-3.561 15.309c-1.136 0.375-2.508 0.49-3.444 1.193-5.414 4.063-7.566 10.6-4.897 17.76 0.097 0.259 0.166 0.514 0.25 0.771 0.723 0.964 1.17 2.134 1.195 3.401-6e-3 0.218 0.021 0.436 0.037 0.653 0.063 0.191 0.125 0.383 0.191 0.575 0.093 0.253 0.188 0.507 0.29 0.757 0.162 0.284 0.586 1.101 0.668 1.242 0.256 0.451 0.513 0.901 0.765 1.354 0.067 0.115 0.106 0.24 0.164 0.359 0.029-0.094 0.057-0.183 0.086-0.278 1.902 3.182 3.484 5.917 5.151 8.599 2.15 3.461 4.509 6.804 6.489 10.357 0.27 0.486 0.523 1.131 0.7 1.79 0.092 0.136 0.159 0.282 0.245 0.421 1.187 1.486 2.084 3.121 2.462 4.869 11.044 16.211 16.301 34.342 14.155 54.414-1.017-2.285-1.828-4.693-3.101-6.829-1.56-2.616-3.36-5.119-5.301-7.471-7.327-8.875-14.752-17.671-21.821-26.117 0.062-0.061 0.124-0.123 0.186-0.185-1.229-0.653-2.281-1.603-2.98-2.81-5.282-5.298-10.444-10.48-15.621-15.674-2.102 0.396-4.165 0.979-6.212 1.634-0.381 0.437-0.777 0.87-1.217 1.299-1.579 1.548-2.18 3.887-2.822 6.112 0.147-0.098 0.294-0.193 0.441-0.294-0.905 7.477 3.488 13.055 6.399 19.206-0.013 4e-3 -0.025 0.01-0.04 0.015 1.068 0.817 1.99 1.784 2.787 2.861 0.741 0.448 1.442 1.177 2.102 2.301 1.475 2.512 3.804 4.55 5.881 6.675 9.793 10.024 15.776 22.2 19.825 35.404 0.779 2.542 0.963 5.438 0.704 8.095-0.548 5.584-1.844 11.098-2.336 16.684-0.667 7.575-3.518 14.157-7.727 20.359-5.697 8.4-9.304 17.625-10.981 27.697-1.376 8.25-3.165 16.438-5.036 24.598-1.701 7.417-5.352 13.825-11.744 18.166-6.175 4.19 2.117 47.111 2.49 47.617 5.572-3.231-7.787-40.613-2.434-44.175 6.664-4.434 10.629-10.522 12.668-18.505 1.687-6.607 3.298-13.252 4.596-19.947 2.039-10.492 3.62-21.084 9.528-30.362 2.479-3.894 4.826-7.874 7.132-11.872 0.815-1.41 1.641-2.942 1.92-4.514 1.035-5.854 1.455-11.841 2.823-17.607 2.399-10.096 0.033-19.199-3.913-28.46-5.31-12.466-14.233-22.102-22.821-32.16-3.682-4.314-6.638-9.508-8.833-14.757-2.65-6.349-0.424-11.595 5.452-15.017 7.531 7.935 15.338 15.823 22.745 24.073 5.728 6.381 11.063 13.126 16.346 19.888 2.81 3.597 5.805 7.289 7.529 11.43 3.892 9.339 7.035 18.991 10.52 28.5 0.357 0.98 0.956 1.874 1.442 2.808 0.357-0.141 0.713-0.285 1.069-0.426-0.218-0.947-0.347-1.926-0.667-2.838-2.185-6.232-4.468-12.432-6.576-18.691-0.427-1.271-0.592-2.819-0.307-4.115 2.684-12.274-1.468-24.005-2.738-35.959-0.02-0.208-0.169-0.404-0.277-0.597-7.062-12.921-14.147-25.829-21.183-38.764-3.041-5.594-6.401-11.073-8.853-16.922-2.791-6.661-0.611-12.616 5.096-16.191 8.665 8.886 17.127 18.001 23.847 28.554 8.878 13.943 17.638 27.962 26.366 41.997 0.712 1.145 1.026 2.645 1.159 4.017 1.546 16.088 3.014 32.186 4.53 48.277 0.111 1.2 0.451 2.383 0.683 3.576 0.409-0.029 0.816-0.057 1.224-0.084 0.013-0.931 0.114-1.867 0.029-2.787-1.51-16.75-3.03-33.501-4.604-50.246-0.108-1.158-0.426-2.419-1.031-3.393-7.995-12.805-15.774-25.759-24.204-38.275-5.947-8.833-12.235-17.578-19.436-25.385-5.393-5.846-5.248-11.654-3.394-18.197 0.525-1.849 1.975-3.435 3.304-5.643 9.394 11.317 19.267 21.123 26.155 33.324 5.421 9.594 10.749 19.247 16.449 28.672 4.604 7.605 6.469 15.863 6.867 24.529 1.021 22.184 1.517 44.399 5.459 66.349 0.962 5.362 0.546 10.687-1.727 15.847-7.301 16.591-12.307 33.909-16.411 51.547-2.732 11.731-5.819 23.411-9.43 34.9-0.951 3.026-13.672 43.654-14.863 46.56 0.414 0.402 2.743 0.178 2.982 0.714 0.146 0.321 0 0 0.143 0.329 1.802-4.116 13.334-44.668 14.643-49.012 4.373-14.5 7.255-29.446 11.35-44.038 3.324-11.85 6.947-23.674 11.434-35.117 3.326-8.479 5.315-16.765 3.236-25.684-2.187-9.379-0.905-18.58 0.951-27.778 1.765-8.747 3.602-17.482 5.434-26.215 1.733-8.256 1.071-16.117-3.024-23.694zm1.132 22.997c-1.701 8.301-3.398 16.603-5.072 24.91-0.584 2.904-1.096 5.82-1.64 8.731-0.179 0.043-0.355 0.086-0.534 0.129-0.292-4.456-0.65-8.906-0.862-13.365-0.456-9.547-0.788-19.101-1.267-28.646-0.447-8.906-2.466-17.315-7.162-25.095-6.372-10.552-12.349-21.342-18.523-32.011-1.046-1.809-2.183-3.575-3.394-5.276-2.975-4.187-3.021-4.688-0.254-8.918 1.812-2.764 3.401-2.776 5.117 0.157 3.667 6.271 7.405 12.51 10.798 18.934 6.783 12.844 13.239 25.865 20.059 38.692 3.717 6.991 4.286 14.193 2.734 21.758z" clip-rule="evenodd" fill="#ffdc73" fill-rule="evenodd"/>
		
			<path d="m737.74 589.39c5.555-14.323-1.146-23.512 6.736-37.007 1.181-2.021-2.32-4.932-7.065-6.88-0.176 0.066-0.388 0.104-0.588 0.163 1.481 3.974-4.45 5.677-12.09 4.957-1.472-0.139-2.739-0.375-3.921-0.646-0.178-0.011-0.339-8e-3 -0.517-0.022-0.955-0.079-1.82-0.204-2.635-0.341-1.098 0.206-2.202 0.394-3.301 0.565-0.203-0.112-0.492-0.269-0.804-0.438-0.091 0.025-0.181 0.056-0.271 0.081 0.357 0.148 0.688 0.287 0.929 0.385-1.127 0.175-2.299 0.299-3.355 0.463-0.031-0.024-0.152-0.112-0.306-0.222-0.045 9e-3 -0.093 0.018-0.139 0.025 0.211 0.097 0.379 0.174 0.43 0.197-0.603 0.094-1.098 0.231-1.589 0.317-0.132-0.045-0.323-0.12-0.52-0.205-0.063 8e-3 -0.125 0.011-0.185 0.018-0.053 0.023-0.103 0.048-0.156 0.071 0.244 0.071 0.479 0.122 0.659 0.152-0.483 0.076-0.935 0.142-1.367 0.186-0.03-0.021-0.069-0.041-0.1-0.062-0.135 0.033-0.277 0.049-0.413 0.072 0.015 8e-3 0.033 0.018 0.047 0.025-0.095 6e-3 -0.19 0.013-0.281 0.02-0.402 0.054-0.806 0.05-1.202 0 0.011 7e-3 0.022 0.011 0.031 0.018-0.563-0.018-1.079-0.063-1.557-0.144-0.127-0.211-0.299-0.463-0.514-0.707-0.032-0.036-0.068-0.055-0.103-0.086-0.174-0.024-0.342-0.041-0.508-0.057 0.133 0.113 0.286 0.263 0.459 0.461 0.102 0.116 0.206 0.226 0.307 0.329-1.061-0.218-1.932-0.589-2.828-0.97-0.459-0.051-0.932-0.123-1.439-0.252-0.379-0.097-0.672-0.331-0.872-0.643-0.107-0.035-0.218-0.072-0.33-0.104-0.145-0.187-0.31-0.384-0.495-0.587-0.208-9e-3 -0.43-0.05-0.663-0.082 0.195 0.168 0.379 0.344 0.551 0.495-0.23-0.058-0.468-0.112-0.714-0.166-0.145-0.138-0.313-0.286-0.478-0.425-0.275-0.058-0.533-0.139-0.808-0.211-0.059 0.011-0.116 0.026-0.177 0.036 0.089 0.062 0.173 0.123 0.262 0.186 0.113 0.079 0.22 0.156 0.325 0.229-0.373-0.059-0.771-0.119-1.19-0.167-0.066-0.038-0.142-0.077-0.212-0.114-1.526 0.244-3.459 0.493-5.081 0.657-1.887 0.191-3.74 0.496-5.204 0.291-0.786-0.11-1.472-0.403-2.167-0.695-0.117 2e-3 -0.238 8e-3 -0.354 9e-3 8e-3 -0.049 0.013-0.096 0.019-0.144-0.681-0.275-1.388-0.516-2.228-0.46-0.325 0.021-0.589-0.046-0.82-0.156-2.183 1.028-4.444 2.145-6.924 3.105-1.196 0.465-2.403 0.829-3.732 1.189-0.412 11.882 2.104 25.218-0.515 36.905 0.446 0.119 0.669 0.179 1.11 0.297 1.604 0.431 3.205 0.803 4.82 1.149-9e-3 0.026-0.02 0.066-0.029 0.1 0.277-8e-3 0.416-9e-3 0.693-0.017 0.478-0.013 0.85 0.11 1.18 0.288 0.19 5e-3 0.378 0.025 0.56 0.073 1.691-0.324 3.326-0.1 4.783 0.694 1.994-0.092 3.916 0.117 5.666 1.032 0-2e-3 3e-3 -0.011 3e-3 -0.014 0.302 0.03 0.605 0.049 0.906 0.076-0.032 0.104-0.065 0.25-0.099 0.361 0.114 0.081 0.22 0.172 0.323 0.272 0.031-0.198 0.063-0.431 0.092-0.608 0.504 0.041 1.02 0.075 1.535 0.103-0.111 0.598-0.235 1.262-0.356 1.965-0.055 0.315-0.101 0.616-0.147 0.904 0.044 0.5-0.02 0.998-0.212 1.452-0.119 0.921-0.17 1.495-0.165 1.498 0 0 0.028-0.074 0.069-0.173-0.013 0.107-0.03 0.21-0.05 0.309-0.758 3.905-5.573 7.252-8.188 10.099-4.93 2.115-10.666 4.8-12.314 8.229-1.275 2.652-2.003 5.27-2.379 7.718-3.375 0.758-6.987 2.166-10.537 4.252-3.202 1.882-5.834 4.011-7.853 6.206-2.904-0.719-6.206-1.128-9.731-1.128-4.564 0-8.73 0.67-12.207 1.843-1.699-1.63-3.619-3.192-5.846-4.612-3.784-2.414-7.646-3.934-11.352-4.563-0.356-2.591-1.28-5.323-3.122-8.03-2e-3 -0.07-5e-3 -0.157-8e-3 -0.231-0.393-0.283-0.713-0.655-0.952-1.074-0.4-0.503-0.813-0.992-1.239-1.465-0.041-0.257-0.084-0.526-0.141-0.81-0.122-0.607-0.28-1.164-0.425-1.628 0.442-0.103 0.895-0.212 1.346-0.324 0.056 0.497 0.146 1.071 0.258 1.672 0.105-0.257 0.24-0.491 0.41-0.707-0.094-0.38-0.186-0.735-0.273-1.059 0.352-0.086 0.699-0.173 1.051-0.261 2e-3 0.184 8e-3 0.393 0.019 0.611 0.108-0.071 0.231-0.132 0.351-0.188-0.033-0.173-0.066-0.349-0.095-0.5 0.42-0.105 0.836-0.214 1.259-0.32 0 0.022-2e-3 0.039-2e-3 0.066-6e-3 0.123 0 0.265 0 0.398 0.117-0.017 0.232-0.041 0.352-0.049-0.017-0.114-0.043-0.25-0.055-0.356-6e-3 -0.049-6e-3 -0.085-0.013-0.129 0.276-0.075 0.555-0.152 0.833-0.226-2e-3 0.071-8e-3 0.141-0.011 0.209-5e-3 0.107 5e-3 0.238 5e-3 0.351 0.09-0.103 0.196-0.19 0.3-0.282-2e-3 -0.021-7e-3 -0.046-9e-3 -0.068-9e-3 -0.097-0.016-0.19-0.021-0.279 0.287-0.078 0.575-0.154 0.866-0.23 4e-3 0.012 0.012 0.032 0.018 0.045 0.902-0.396 1.971-0.447 2.869-0.137 0.442-0.111 0.893-0.164 1.333-0.114 1.764-0.49 3.518-1.015 5.259-1.573 0.487-0.174 0.731-0.261 1.219-0.435-1.112-13.285 3.359-25.116 4.593-38.118-0.189-0.615-1.959-1.181-4.642-2.222-0.693-0.047-1.391-0.217-2.036-0.504-0.937-0.417-1.568-0.716-2.31-0.794-0.768-0.081-1.454-0.354-2.014-0.751-1.435-0.283-2.799-0.635-4.038-1.096-0.505 1.836-0.901 3.615-1.185 5.425-0.727 0.08-1.447 0.152-2.164 0.234-0.327 0.18-0.695 0.333-1.139 0.428-2.061 0.439-4.122 0.747-6.164 0.976-0.492 0.319-1.099 0.527-1.883 0.497-2.579-0.101-5.74 0.105-9.156 0.126-4.626 0.269-9.742 0.421-14.541 0.421-1.071 0-2.123-0.028-3.149-0.042-5.017 1.374-10.17 0.867-13.874-0.818 4e-3 6e-3 9e-3 0.02 0.014 0.027-0.059-7e-3 -0.088-0.011-0.146-0.018-0.16 0.02-0.317 0.047-0.492 0.047-0.742 0-1.346-0.199-1.83-0.509-0.47-0.104-0.707-0.154-1.176-0.258-0.533-1.771-1.116-3.563-1.745-5.378 0.027 0.011 0.066 0.024 0.093 0.034-2e-3 -0.02-1e-3 -0.038-3e-3 -0.058-0.034-7e-3 -0.077-0.019-0.105-0.025-0.168-0.479-0.37-0.968-0.544-1.451-0.282-5e-3 -0.543-0.035-0.817-0.052-0.38 0.342-0.881 0.607-1.55 0.73-1.691 0.312-3.392 0.586-5.089 0.87-3.865 1.07-9.091 2.783-8.989 4.117 1.019 13.36 3.467 26.669 4.051 40.251 0.499 0.133 0.749 0.199 1.248 0.332 5.607 1.492 11.309 2.596 17.059 3.358 1.531-0.426 3.17-0.487 4.726-0.025 1.555 0.462 3.125 0.83 4.801 1.079 0.236 0.021 0.482 0.046 0.699 0.063 2e-3 0.015 3e-3 0.034 3e-3 0.048 0.043 6e-3 0.096 0.015 0.128 0.021 0.041 4e-3 0.083 7e-3 0.125 0.012-2e-3 -0.02-6e-3 -0.045-8e-3 -0.063 0.444 0.041 0.844 0.067 1.211 0.09-1e-3 0.031-2e-3 0.063-5e-3 0.094 0.136 0.015 0.274 0.027 0.409 0.041 3e-3 -0.034-1e-3 -0.075 0-0.111 0.723 0.039 1.321 0.047 1.932 0.047-3e-3 0.087-6e-3 0.191-7e-3 0.287 0.158 0 0.239-1e-3 0.397-1e-3 -8e-3 -0.099-0.017-0.2-0.026-0.286 0.406 0 0.838-6e-3 1.317-0.018-7e-3 0.096-2e-3 0.199-2e-3 0.301 0.169 2e-3 0.339-4e-3 0.508-1e-3 -8e-3 -0.103-0.021-0.212-0.024-0.31 0.607-0.011 1.309-0.018 2.168-0.021 3e-3 0.149 6e-3 0.328 0.01 0.495 0.142 0.039 0.285 0.073 0.412 0.121-0.036-0.207-0.069-0.435-0.104-0.616 0.131 0 0.198 1e-3 0.33 1e-3 0.102 0 0.196-4e-3 0.301-4e-3 0.188 0.296 0.284 0.445 0.472 0.741 0.164 0.244 0.327 0.477 0.484 0.705 0.016 0.137 0.051 0.282 0.073 0.42 0.374 0.593 0.497 1.287 0.396 1.957 0.033 0.128 0.052 0.254 0.088 0.382 0.645 0.921 1.017 1.989 1.085 3.198 0.875 2.13 2.052 4.315 3.576 6.47 3.57 5.046 8.456 8.469 13.035 9.85 2.027 3.38 5.613 6.795 10.47 9.645 7.172 4.208 14.597 5.729 19.821 4.459 3.566 1.328 7.995 2.109 12.929 2.109 6.943 0 12.922-1.525 16.839-3.994 4.521-0.198 9.839-1.84 15.019-4.881 4.658-2.734 8.158-5.993 10.224-9.237 4.681-1.917 9.257-6.577 12.212-12.983 2.24-4.855 2.445-9.617 3.493-13.229 3.197-2.813 6.956-6.406 8.385-10.817 0.125-0.732 0.185-1.475 0.199-2.237 0.018-0.939 0.131-1.782 0.396-2.593 0.085-1.153 0.208-2.315 0.308-3.439 0.075-3e-3 0.152-0.011 0.229-0.013-0.119 0.6-0.22 1.284-0.25 2.006-0.01 0.229-0.011 0.447-8e-3 0.657 0.059-0.128 0.133-0.237 0.199-0.358 0.068-0.326 0.17-0.646 0.314-0.95 0.025-0.479 0.063-0.966 0.1-1.382 0.28-0.015 0.567-0.036 0.867-0.059-0.021 0.063-0.034 0.147-0.053 0.222 0.385-0.34 0.847-0.598 1.411-0.719 1.993-1.314 4.35-1.795 6.36-1.319 0.223-0.01 0.444-0.021 0.668-0.023 0.348-3e-3 0.695 0.011 1.045-0.013-0.022 3e-3 0.543-0.017 0.543-0.017s1.558-0.151 2.19 0.098c0.08-0.218 0.148-0.406 0.187-0.516 6.862 0.108 9.979 0.52 17.967-1.137 0.585-0.114 0.874-0.179 1.455-0.322zm-67.642 28.47c3.549-7.699 19.346-12.101 22.633-12.021 0.19 0.127 0.437 0.355 0.6 0.705 0.139 0.298 0.228 0.625 0.216 0.912-1e-3 0.021-3e-3 0.039-3e-3 0.061-0.065-0.03-0.121-0.048-0.112-0.048-0.01 5e-3 -0.096 0.234-0.188 0.506-0.195 0.153-0.376 0.286-0.565 0.428-0.011-8e-3 -0.026-0.012-0.041-0.017 0.126-0.23 0.511-0.944 0.453-1.535-0.034-0.355-0.346-0.501-0.651-0.489-0.311 0.012-0.568 0.104-0.563 0.099-1e-3 5e-3 0.598 0.119 0.62 0.764 0.052 0.46 0.063 0.933 0.081 1.141-0.114-0.025-0.229-0.013-0.224-0.019l-8e-3 0.021s-0.041-0.076-0.065-0.112c0.019-0.275 0.03-0.675-0.1-1.024-0.113-0.305-0.418-0.464-0.774-0.441-0.353 0.022-0.678 0.174-0.678 0.174s0.239-0.021 0.419 0.069c0.183 0.092 0.335 0.329 0.434 0.601 0.013 0.035 0.027 0.07 0.041 0.107-0.192-0.19-0.509-0.245-0.814-0.213-0.396 0.042-0.729 0.193-0.729 0.193s0.253-0.033 0.48 0.047c0.16 0.056 0.306 0.179 0.436 0.332-0.43 0.067-0.84 0.145-1.113 0.162-0.398 0.044-0.541-0.043-0.545-0.039 6e-3 -6e-3 -0.011 0.106 0.115 0.203-3.19 0.604-13.581 4.117-16.501 10.45-2.628 5.699-2.739 10.815-1.351 13.626-0.109-0.125-0.229-0.253-0.308-0.365-0.213-0.306-0.311-0.539-0.311-0.539s-0.051 0.246 0.038 0.634c0.091 0.394 0.388 0.903 0.826 1.338 0.442 0.437 0.875 0.758 1.162 1.028 0.044 0.044 0.086 0.077 0.123 0.115-0.099 0.182-0.212 0.363-0.336 0.553-0.2-0.339-0.512-0.793-0.949-1.233-0.815-0.82-1.487-1.506-1.487-1.525-0.018-0.013 0.164 0.989 1.031 1.858 0.48 0.481 0.951 0.864 1.271 1.111-0.114 0.168-0.236 0.337-0.368 0.513-0.299-0.287-0.752-0.74-1.22-1.232-0.8-0.842-1.325-1.698-1.332-1.702 0-7e-3 -2e-3 0.065 9e-3 0.19-0.241-0.334-0.415-0.551-0.423-0.551 8e-3 -0.01-0.018 0.864 0.571 1.773 0.156 0.243 0.337 0.448 0.512 0.615 8e-3 0.032 0.017 0.068 0.024 0.104-0.378-0.32-0.711-0.619-0.926-0.874-0.256-0.304-0.388-0.528-0.388-0.528s-0.017 0.237 0.116 0.623c-2.346-3.637-2.168-9.976 0.862-16.549zm22.114-24.141c4e-3 -6e-3 0.172-0.413 0.406-1.028-0.189 0.871-0.182 1.501-0.186 1.486 0.364-0.939 0.545-1.419 0.911-2.387 0.191-0.512 0.368-1 0.511-1.401 0.043 0.14 0.08 0.288 0.125 0.422-0.18 0.397-0.4 0.898-0.621 1.459-0.521 1.325-0.604 2.528-0.6 2.52 4e-3 -0.01 0.48-0.986 0.97-2.275 0.168-0.443 0.295-0.878 0.392-1.266 0.038 0.119 0.085 0.22 0.125 0.331-0.211 0.459-0.46 1.052-0.678 1.741-0.506 1.603-0.418 2.976-0.415 2.958-1e-3 -0.012 0.31-1.241 0.781-2.758 0.174-0.56 0.325-1.091 0.45-1.558 0.033 0.088 0.066 0.184 0.097 0.271-0.658 2.153-0.733 4.594-1.44 7.013-0.73 2.501-2.935 4.669-4.757 6.553 0.274-0.104 0.805-0.296 0.805-0.296s-2.191 0.811-3.385 1.256c-0.537 0.201-1.112 0.417-1.717 0.65 0.01-5e-3 0.017-6e-3 0.025-9e-3 2.414-2.427 5.873-5.212 6.648-8.423 0.534-2.211 0.796-4.511 1.477-6.688-4e-3 0.211 7e-3 0.342 7e-3 0.34 0-9e-3 0.581-1.504 0.581-1.504s-0.51 2.606-0.512 2.593zm0.535-2.665s0.133-0.335 0.202-0.514c0.22-0.566 0.39-1.117 0.51-1.522 0.032 0.125 0.063 0.26 0.098 0.385-0.238 0.389-0.81 1.651-0.81 1.651zm6.803 5.397c0.034 0 0.051-1e-3 0.085-1e-3 -0.071 1.247 0.037 2.535-0.341 3.896-0.534 1.926-1.752 3.545-3.047 4.924-0.115-0.319-0.258-0.608-0.477-0.819-0.786-0.756-2.155-0.625-4.694 0.209 1.305-1.478 2.772-3.187 3.4-5.208 0.575-1.852 0.528-3.606 0.914-5.204 0.987 1.866 1.986 2.816 3.099 2.773 0.35-0.014 0.695-0.142 1.057-0.348-1e-3 -0.074 1e-3 -0.145 4e-3 -0.222zm-5.411 10.797c-0.152 0.128-0.303 0.246-0.456 0.369 0.046-0.084 0.102-0.181 0.144-0.292 0.146-0.331 0.192-0.722 0.103-1.035 0.17 0.171 0.276 0.396 0.341 0.661-0.058 6e-3 -0.104 0.016-0.102 0.012 3e-3 7e-3 -9e-3 0.127-0.03 0.285zm-5.342 3.588c-0.758 0.363-1.328 0.545-1.594 0.519-0.273-0.027-0.436-0.287-0.39-0.744 1.057-0.364 1.722-0.485 1.924-0.364 0.124 0.073 0.131 0.279 0.06 0.589zm-18.556 27.456c-1.329 1.273-3.039 2.601-5.217 3.879-2.124 1.246-4.12 2.105-5.931 2.701-0.21-2.547-1.881-4.821-4.646-6.614 1.282-1.181 2.87-2.393 4.873-3.568 2.323-1.364 4.495-2.275 6.432-2.866 0.689 2.874 2.199 5.149 4.489 6.468zm-19.518-3.24c0.403-0.454 0.798-0.857 1.099-1.15 1.34-1.097 2.836-2.166 4.506-3.145 2.514-1.474 5.061-2.573 7.514-3.337-0.202 0.206-0.312 0.369-0.312 0.369 4e-3 -5e-3 0.702-0.121 1.36-0.475 0.207-0.111 0.389-0.229 0.548-0.345-4e-3 0.246 5e-3 0.491 0.013 0.742-0.32-0.045-0.797-0.036-1.295 0.212-0.844 0.421-1.049 1.151-1.041 1.129 0.011-3e-3 0.635-0.343 1.332-0.671 0.378-0.201 0.746-0.358 1.006-0.464 0.011 0.248 0.025 0.497 0.046 0.743-0.302 5e-3 -0.699 0.043-1.116 0.195-0.859 0.314-1.275 0.932-1.268 0.927 0.011 0 0.732-0.171 1.497-0.447 0.353-0.128 0.668-0.272 0.912-0.389 0.026 0.235 0.044 0.475 0.076 0.709-0.313 0.052-0.723 0.13-1.144 0.301-0.233 0.095-0.437 0.214-0.607 0.335-1.866 0.65-3.83 1.543-5.814 2.709-2.297 1.35-4.203 2.822-5.724 4.294 0.146 0.077 0.418 0.243 0.418 0.243s-0.619-0.338-0.943-0.488c0.34-0.197 0.768-0.46 1.204-0.776 0.956-0.692 1.643-1.394 1.643-1.399 6e-3 0-1.033 0.282-2.02 0.996-0.494 0.358-0.872 0.75-1.125 1.046-0.15-0.068-0.299-0.137-0.455-0.2 0.289-0.186 0.659-0.427 1.033-0.715 0.804-0.618 1.324-1.312 1.324-1.312s-0.889 0.28-1.721 0.92c-0.433 0.332-0.733 0.698-0.925 0.979-0.16-0.063-0.325-0.114-0.489-0.174 0.305-0.161 0.956-0.535 1.583-1.087 0.854-0.752 1.343-1.544 1.343-1.544s-0.907 0.43-1.762 1.18c-0.649 0.57-1.091 1.168-1.263 1.418-0.18-0.064-0.361-0.141-0.546-0.198 0.31-0.289 0.716-0.685 1.113-1.131zm-13.284 1.12c8.233 0 15.126 2.33 17.974 5.713 0.194 0.458 0.427 1.078 0.623 1.754 0.213 0.735 0.387 1.429 0.495 1.919-0.128 0.029-0.257 0.057-0.382 0.077 0.045-0.363 0.059-0.799-0.031-1.277-0.121-0.641-0.431-1.198-0.729-1.543-0.298-0.344-0.558-0.488-0.552-0.492 0.017 4e-3 0.515 0.93 0.696 2.121 0.089 0.463 0.157 0.902 0.21 1.265-0.167 0.025-0.338 0.062-0.497 0.078 0.079-0.242 0.129-0.538 0.095-0.866-0.098-0.932-0.721-1.517-0.709-1.509 0.046 0.623 0.069 0.932 0.115 1.555 0.042 0.318 0.065 0.613 0.081 0.868-0.075 6e-3 -0.143 0.015-0.216 0.02 0.115-0.337 0.171-0.732 0.115-1.135-0.195-1.402-1.154-2.228-1.133-2.216-8e-3 7e-3 0.38 1.043 0.541 2.273 0.054 0.411 0.063 0.796 3e-3 1.121-0.157 0.014-0.302 0.019-0.448 0.022 0.038-0.175 0.066-0.348 0.066-0.52 0-3.085-6.696-6.527-16.313-6.527s-16.315 3.442-16.315 6.527c0 0.345 0.097 0.694 0.261 1.045-0.059-0.076-0.099-0.126-0.099-0.128 7e-3 -8e-3 -0.176 0.648 0.194 1.355 0.113 0.198 0.238 0.362 0.376 0.492-0.104 0.016-0.22 0.023-0.328 0.03-0.104-0.24-0.229-0.504-0.382-0.775-0.518-0.922-1.1-1.642-1.103-1.646 1e-3 -3e-3 0.039 0.914 0.571 1.876 0.116 0.211 0.243 0.402 0.371 0.577-0.188 5e-3 -0.376 7e-3 -0.584 0-0.111-0.32-0.251-0.719-0.418-1.134-0.422-1.046-0.971-1.87-0.977-1.867 8e-3 -3e-3 -0.022 0.959 0.415 2.048 0.145 0.358 0.331 0.666 0.513 0.927-0.108-6e-3 -0.217-6e-3 -0.332-0.018-0.22-0.29-0.439-0.62-0.638-0.984-0.495-0.835-0.761-1.642-0.889-2.109 0.342-5.021 8.725-8.917 19.36-8.917zm14.011 9.228c0 0.095-0.031 0.199-0.08 0.308-0.404-0.115-0.697-0.271-0.833-0.449-0.17-0.222-0.206-0.641-0.099-1.185 0.663 0.513 1.012 0.985 1.012 1.326zm-6.4-3.633c0.271 0.067 0.547 0.131 0.804 0.208-5e-3 9e-3 -0.016 0.021-0.021 0.031-0.26 0.372-0.511 0.934-0.643 1.57-0.075 0.361-0.109 0.7-0.125 1.007 0-0.855 0.117-1.74 0.454-2.675-0.158-0.051-0.314-0.095-0.469-0.141zm-15.202 0c2.065-0.518 4.6-0.867 7.597-0.867 2.202 0 4.156 0.191 5.854 0.492-0.983 2.816-0.794 5.479 0.844 7.622 0.053 0.069 0.123 0.123 0.177 0.193-1.926 0.418-4.217 0.694-6.874 0.694-2.495 0-4.662-0.246-6.516-0.62 0.755-2.249 0.339-4.851-1.082-7.514zm-20.621-11.863c0.434 0.151 0.835 0.267 1.11 0.384 0.28 0.107 0.439 0.223 0.442 0.223-4e-3 3e-3 -0.028-0.195-0.229-0.433-0.119-0.142-0.315-0.289-0.537-0.418 0.355 0.087 0.598 0.124 0.598 0.124s-0.113-0.107-0.282-0.248c2.497 0.764 5.05 1.937 7.57 3.523 2.006 1.263 3.8 2.658 5.396 4.1-0.199 0.12-0.396 0.245-0.59 0.386-8e-3 4e-3 -8e-3 9e-3 -0.017 9e-3 -0.206-0.384-0.549-0.907-1.073-1.395-0.998-0.928-2.124-1.279-2.112-1.285-4e-3 6e-3 0.73 0.779 1.676 1.648 0.496 0.461 0.75 0.689 1.256 1.15-0.198 0.085-0.392 0.188-0.59 0.29-0.092-0.228-0.306-0.644-0.714-1.027-0.587-0.551-1.274-0.794-1.274-0.794s0.272 0.612 0.841 1.146c0.385 0.36 0.775 0.607 1.01 0.745-0.033 0.016-0.07 0.025-0.108 0.049-0.091 0.053-0.157 0.116-0.206 0.187-0.133 0.073-0.255 0.154-0.388 0.227-0.133-0.29-0.439-0.894-1-1.459-0.776-0.782-1.593-1.247-1.593-1.256-9e-3 0 0.365 0.824 1.138 1.599 0.546 0.549 1.087 0.971 1.358 1.178-0.074 0.042-0.149 0.09-0.226 0.133-1.337-1.163-2.92-2.309-4.686-3.381-2.78-1.689-5.455-2.813-7.921-3.455 0.027-0.201 0.048-0.409 0.064-0.61 0.282 0.138 0.61 0.307 0.943 0.496 0.686 0.382 1.03 0.574 1.723 0.956-4e-3 0.016-0.352-0.833-1.357-1.407-0.437-0.249-0.889-0.356-1.266-0.402 0.025-0.266 0.025-0.544 0.036-0.814 0.211 0.183 0.475 0.396 0.812 0.587 0.794 0.448 1.524 0.753 1.533 0.765 0.01 2e-3 -0.317-0.729-1.15-1.209-0.429-0.247-0.863-0.404-1.182-0.496 2e-3 -0.09 8e-3 -0.181 0.01-0.281 0.254 0.155 0.594 0.329 0.985 0.465zm-1.557 4.019c2.051 0.567 4.39 1.536 7.001 3.069 1.518 0.891 2.796 1.804 3.892 2.713-1.795 1.65-2.819 3.587-2.819 5.695 0 0.74 0.139 1.451 0.374 2.137-2.108-0.573-4.537-1.53-7.148-3.063-3.775-2.217-6.179-4.59-7.534-6.54 0.392 0.443 0.772 0.829 1.099 1.128 5e-3 0.016 0.011 0.026 0.018 0.037 0.264 0.294 0.527 0.586 0.788 0.88 0.113-0.056 0.232-0.104 0.342-0.172 2.142-1.314 3.322-3.379 3.987-5.884zm-5.705 2.346c0.407 0.51 0.832 0.955 1.172 1.304-0.089 0.082-0.198 0.141-0.294 0.215-0.291-0.415-0.662-0.944-1.06-1.514-0.196-0.282-0.405-0.541-0.606-0.775 0.045-0.042 0.084-0.099 0.129-0.146 0.185 0.286 0.403 0.595 0.659 0.916zm-0.354-1.278c0.102-0.137 0.194-0.29 0.278-0.451 0.192 0.364 0.438 0.776 0.76 1.205 0.364 0.484 0.741 0.91 1.064 1.244-0.104 0.117-0.212 0.229-0.322 0.333-0.235-0.394-0.55-0.88-0.936-1.366-0.286-0.363-0.579-0.684-0.844-0.965zm-0.333 1.569c0.406 0.585 0.893 1.071 1.296 1.426-0.073 0.056-0.134 0.11-0.212 0.157-0.023 0.011-0.054 0.025-0.076 0.038-0.258-0.354-0.551-0.741-0.875-1.146-0.309-0.385-0.612-0.738-0.898-1.058 0.037-0.016 0.078-0.03 0.111-0.052 0.053-0.03 0.098-0.075 0.146-0.112 0.158 0.236 0.328 0.487 0.508 0.747zm0.977-17.666c3.792 5.166 4.219 10.592 3.207 14.54-0.395-0.531-0.834-0.928-0.841-0.928 5e-3 -5e-3 -0.054 0.68 0.407 1.332 0.072 0.11 0.158 0.201 0.246 0.285-0.055 0.171-0.12 0.332-0.182 0.497-0.238-0.191-0.453-0.292-0.453-0.292s4e-3 0.416 0.238 0.827c-0.084 0.18-0.177 0.358-0.269 0.529-0.509-0.618-0.821-1.159-0.813-1.176 3e-3 -2e-3 -0.061 0.202-0.023 0.533 0.036 0.324 0.203 0.771 0.525 1.17-0.106 0.166-0.212 0.333-0.33 0.483-0.214-0.37-0.489-0.804-0.815-1.242-0.386-0.519-0.76-0.97-1.065-1.316 1.297-2.898 1.288-8.252-2.482-13.698-4.796-6.927-12.59-9.785-15.796-8.024-0.374 0.205-0.69 0.482-0.958 0.819-0.126-0.138-0.241-0.294-0.364-0.443 0.32-0.057 0.706-0.15 1.095-0.308 0.931-0.377 1.56-0.873 1.57-0.873 4e-3 0-0.93 0.016-1.866 0.401-0.408 0.168-0.75 0.353-1.022 0.514-0.125-0.169-0.255-0.355-0.377-0.539 0.352-0.025 0.816-0.083 1.277-0.206 0.958-0.256 1.743-0.541 1.761-0.532 0.025-9e-3 -0.883-0.232-1.906 0.023 0.602-0.388 0.991-0.743 0.988-0.75 3e-3 9e-3 -0.941 0.125-1.868 0.615-0.222 0.117-0.412 0.242-0.575 0.37-0.102-0.157-0.203-0.318-0.3-0.486 0.334-0.192 0.767-0.347 1.321-0.443 0.675-0.117 1.359-0.227 1.827-0.349 0.471-0.123 0.742-0.253 0.742-0.253-0.315-2e-3 -0.474-1e-3 -0.791-3e-3 -0.482-2e-3 -1.161-0.039-1.929 0.091-0.246 0.042-0.474 0.112-0.687 0.202 0.035-0.022 0.064-0.05 0.105-0.067 5.42-2.952 14.654 0.864 20.403 8.697zm-12.367-1.905c-0.255-0.357-0.502-0.697-0.737-1.004 0.14-0.139 0.274-0.28 0.409-0.431 0.121 0.213 0.244 0.432 0.387 0.653 0.521 0.81 0.952 1.532 1.177 1.943-0.145 0.121-0.291 0.241-0.439 0.354-0.171-0.459-0.419-0.986-0.797-1.515zm0.436 1.75c-0.17 0.117-0.343 0.227-0.521 0.326-0.195-0.505-0.46-1.094-0.818-1.693-0.171-0.286-0.355-0.551-0.531-0.811 0.102-0.073 0.207-0.143 0.304-0.228 0.171 0.291 0.366 0.596 0.585 0.905 0.388 0.554 0.72 1.069 0.981 1.501zm0.176-2.766c-0.193-0.304-0.397-0.59-0.591-0.845 0.042-0.058 0.086-0.106 0.13-0.165 0.103 0.059 0.206 0.115 0.309 0.171 0.134 0.364 0.326 0.773 0.598 1.186 0.297 0.449 0.598 0.859 0.852 1.198-0.165 0.172-0.335 0.342-0.517 0.503-0.067-0.485-0.276-1.256-0.781-2.048zm0.988 0.105c-0.109-0.166-0.217-0.327-0.317-0.484 0.221 0.136 0.442 0.271 0.66 0.408 0.123 0.077 0.247 0.154 0.37 0.239 0.031 0.016 0.058 0.038 0.086 0.053 0.096 0.108 0.185 0.222 0.276 0.317-0.146 0.201-0.299 0.392-0.457 0.575-0.165-0.341-0.363-0.721-0.618-1.108zm-11.121-7.547c-0.087 0.051-0.158 0.113-0.246 0.162-0.275-0.686-0.528-1.426-0.745-2.217 0.082 0.072 0.165 0.14 0.252 0.209 0.846 0.673 1.766 1.074 2.129 1.223-0.475 0.175-0.943 0.381-1.39 0.623zm20.313 5.395c0.363-0.082 0.727-0.169 1.096-0.253 0.039 0.452 0.107 0.987 0.225 1.559-0.433-0.45-0.877-0.888-1.321-1.306zm-31.606-0.592c-0.361-1.078-0.572-2.118-0.766-2.826-0.265-0.968-0.427-1.541-0.429-1.538 2e-3 0-0.181 0.534-0.403 1.524-0.111 0.494-0.233 1.108-0.318 1.828-0.035 0.293-0.062 0.611-0.08 0.942-0.608-0.036-1.206-0.08-1.798-0.118-0.411-2.39-0.821-3.827-0.821-3.827s-0.398 1.364-0.795 3.724c-0.78-0.062-1.541-0.14-2.306-0.207 0-0.101 0.011-0.215 7e-3 -0.313-0.022-0.532-0.077-1.017-0.141-1.467-0.128-0.9-0.285-1.666-0.415-2.288-0.175-0.776-0.262-1.166-0.437-1.942-4e-3 -2e-3 -0.159 0.68-0.333 1.935-0.124 0.905-0.188 1.357-0.312 2.263-0.064 0.433-0.135 0.899-0.231 1.367-0.019 0.09-0.045 0.166-0.065 0.256-0.123-0.02-0.246-0.03-0.366-0.045-0.3-0.037-0.6-0.08-0.899-0.113-0.397-9.198-0.92-14.909-0.938-14.903 0.016 2e-3 -0.602 5.433-1.117 14.638-0.518-0.074-1.041-0.126-1.559-0.203-0.169-7.328-0.528-13.392-1.097-17.42-0.385-2.649-0.697-3.901-1.262-6.443 0 0 0.305 2.148 0.481 6.355 0.164 3.92-6e-3 9.929-0.275 17.161-0.773-0.129-1.548-0.247-2.324-0.384-0.289-8.739-1.136-15.873-2.26-20.463-0.76-2.956-1.237-4.376-1.925-7.375 0.374 2.967 0.689 4.372 1.136 7.295 0.683 4.502 1.004 11.514 0.862 20.111-1.043-0.205-2.084-0.42-3.125-0.648-0.481-9.976-1.647-17.939-3.053-23.168-0.903-3.396-1.35-5.096-1.773-8.781 1e-3 0-0.016 3.256 0.984 8.69 0.944 5.13 1.615 12.871 1.657 22.741-0.532-0.135-1.069-0.243-1.605-0.38-0.449-12.137-3.833-23.773-4.234-35.845 4.435 2.97 16.256 4.227 20.707 4.585 16.008 1.288 32.999 1.413 48.949-1.151 8.228-1.323 13.668-4.146 13.668-4.146-0.563 11.899-5.453 22.571-4.351 34.688-0.252 0.077-0.505 0.146-0.76 0.223-1.696-10.859 2.574-20.454 1.744-31.032-0.257 10.787-3.915 20.6-3.938 31.669-0.271 0.078-0.541 0.164-0.814 0.239-1.113-16.998 1.142-26.629 1.142-26.629s-3.499 9.579-3.286 27.211c-0.738 0.195-1.48 0.378-2.221 0.561-1.013-10.496-1.436-16.845-1.436-16.845s-0.771 6.387-0.649 17.338c-0.684 0.153-1.374 0.299-2.062 0.444 0.02-0.772-0.063-1.479-0.183-2.102-0.192-0.995-0.477-1.819-0.702-2.489-0.308-0.821-0.46-1.23-0.768-2.052-4e-3 -6e-3 -0.035 0.755-3e-3 2.132-0.012 1.227 0.145 3.078-0.489 4.947-0.186 0.033-0.371 0.063-0.557 0.104-0.051-0.203-0.105-0.379-0.154-0.584-0.115-0.411-0.172-0.616-0.287-1.027-0.201-0.66-0.303-0.99-0.504-1.65-0.178-0.572-0.266-0.855-0.443-1.428 2e-3 0-0.166 0.508-0.325 1.446-0.079 0.466-0.161 1.045-0.225 1.713-0.034 0.432-0.051 0.647-0.085 1.079-0.014 0.232-0.021 0.35-0.035 0.582-6e-3 0.099-0.01 0.149-0.016 0.248-0.227 0.035-0.452 0.085-0.676 0.117-0.213-0.157-0.426-0.312-0.642-0.466 0.623-2.757 0.806-5.88 0.409-9.224-0.963-8.123-2.539-13.924-7.992-16.1-0.148 0.92-0.23 1.375-0.393 2.289 0.295 0.176 0.568 0.376 0.831 0.589 0.036 0.088 0.076 0.188 0.125 0.286 0.207 0.422 0.58 0.985 1.026 1.543 0.446 0.557 0.835 1.063 1.066 1.456 0.232 0.395 0.337 0.673 0.344 0.669-5e-3 0 0.022-0.168-5e-3 -0.45 1.12 2.546 2.235 6.015 2.7 9.929 0.35 2.942 0.229 5.721-0.274 8.18 0.362 0.174 1.067 0.558 1.067 0.558s-2.601-1.276-3.958-1.862c0.321-1.959 0.391-4.186 0.101-6.595-0.559-4.635-1.95-8.323-3.665-10.542-0.255 1.76-0.363 2.649-0.387 4.502 0.678 1.669 1.378 3.773 1.684 6.251 0.088 0.71 0.133 1.381 0.156 2.028-0.152-0.171-0.331-0.359-0.547-0.539-0.721-0.601-1.547-0.904-1.547-0.904s0.375 0.675 1.1 1.278c0.351 0.292 0.721 0.507 1.006 0.661 5e-3 0.348 1e-3 0.682-8e-3 1.016-0.238-0.273-0.546-0.6-0.917-0.921-0.909-0.786-1.846-1.305-1.851-1.305 0-5e-3 0.46 0.871 1.391 1.667 0.49 0.419 0.997 0.738 1.362 0.95-0.021 0.379-0.053 0.747-0.092 1.102-0.022-6e-3 -0.048-0.013-0.067-0.018-0.293-0.401-0.82-0.999-1.55-1.558-1.231-0.942-2.401-1.585-2.393-1.601-0.022 4e-3 0.711 1.033 1.95 1.977 0.544 0.414 1.057 0.769 1.456 1.048-0.545-0.114-1.082-0.205-1.622-0.268-0.161-0.16-0.342-0.324-0.542-0.485-0.926-0.75-1.923-1.179-1.923-1.179s0.535 0.794 1.465 1.547c0.024 0.015 0.043 0.032 0.069 0.05-0.374-0.018-0.743-0.036-1.107-0.028-0.389-0.255-0.856-0.554-1.361-0.854-0.712-0.424-1.386-0.804-1.838-1.089-0.455-0.287-0.681-0.529-0.681-0.529-4e-3 -9e-3 0.079 0.308 0.438 0.705 0.354 0.393 0.948 0.889 1.684 1.33 0.312 0.188 0.623 0.344 0.921 0.48-1.09 0.092-2.141 0.302-3.13 0.654-0.219-0.232-0.871-0.885-1.739-1.564-0.322-0.252-0.638-0.478-0.925-0.67-0.061-0.261-0.121-0.517-0.17-0.788 0.276 0.286 0.59 0.593 0.961 0.908 1.279 1.087 2.665 1.666 2.656 1.663-2e-3 -4e-3 -0.915-0.958-2.166-2.016-0.561-0.476-1.114-0.88-1.557-1.189-0.032-0.211-0.076-0.411-0.105-0.625-6e-3 -0.046-8e-3 -0.089-9e-3 -0.134 0.111 0.105 0.227 0.212 0.347 0.32 1.05 0.945 2.093 1.648 2.101 1.646-3e-3 6e-3 -0.497-1.013-1.598-1.99-0.307-0.272-0.623-0.508-0.929-0.703-0.013-0.185-0.041-0.383-0.055-0.566 0.108 0.111 0.221 0.228 0.343 0.343 0.961 0.899 2.005 1.467 2.005 1.467s-0.529-0.9-1.494-1.806c-0.298-0.28-0.602-0.521-0.885-0.73-0.01-0.277-0.016-0.555-0.016-0.82 0.089 0.101 0.187 0.208 0.291 0.306 0.855 0.803 1.876 1.234 1.869 1.234 3e-3 -7e-3 -0.531-0.774-1.348-1.56-0.27-0.26-0.545-0.494-0.792-0.693 0.012-0.271 0.027-0.532 0.052-0.789 0.74 0.628 1.389 1.033 1.389 1.041 0.011 6e-3 -0.362-0.882-1.253-1.712-0.027-0.019-0.044-0.035-0.065-0.056 0.021-0.178 0.047-0.349 0.077-0.519 0.616 0.612 1.241 1.009 1.241 1.018 8e-3 0-0.234-0.778-0.89-1.513-0.076-0.085-0.152-0.154-0.227-0.227 0.436-2.031 1.303-3.509 2.21-4.5 0.041-1.108 0.071-1.653 0.132-2.742-0.261 0.121-0.511 0.258-0.762 0.413-3e-3 -0.216-0.022-0.455-0.066-0.706 0.099-0.083 0.157-0.137 0.161-0.137 7e-3 -3e-3 -0.067 0.019-0.176 0.055-0.022-0.088-0.036-0.181-0.061-0.273-0.069-0.254-0.146-0.493-0.223-0.715 0.033-0.142 0.063-0.232 0.07-0.236 2e-3 0-0.046 0.04-0.12 0.104-0.054-0.16-0.114-0.304-0.168-0.432 0.224-0.21 0.357-0.339 0.357-0.341 2e-3 0-0.167 0.06-0.431 0.167-0.025-0.051-0.043-0.104-0.067-0.154 0.527-0.203 1.078-0.368 1.643-0.5 0.042-0.782 0.061-1.173 0.091-1.962-8.677 1.468-12.623 9.022-11.308 19.102 0.445 3.412 1.463 6.508 2.916 9.128-1.371-0.017-2.735-0.048-4.072-0.099zm3.701-9.246c-0.864-6.543 0.577-12.115 4.414-14.993 0.271-0.124 0.882-0.451 1.471-0.905 0.266-0.141 0.537-0.284 0.814-0.407-4e-3 0.067 0 0.138-1e-3 0.212-0.442 0.208-1.006 0.511-1.521 0.911-0.531 0.411-0.895 0.853-1.072 1.19-0.18 0.344-0.155 0.571-0.163 0.571-0.041-0.035 0.736-0.695 1.8-1.466 0.368-0.286 0.693-0.559 0.972-0.805 0.016 0.21 0.048 0.435 0.096 0.667-0.047 0.087-0.088 0.183-0.129 0.28-0.01 0-0.019 0-0.027 5e-3 -0.029-0.498-8e-3 -0.852 7e-3 -0.859 2e-3 -0.027-0.492 0.404-0.639 1.046-0.392 0.139-0.861 0.353-1.282 0.641-0.93 0.636-1.328 1.338-1.328 1.334 2e-3 0 0.926-0.387 1.837-1.005 0.278-0.188 0.519-0.373 0.74-0.541 2e-3 0.053-3e-3 0.098 3e-3 0.145 0.016 0.103 0.032 0.2 0.055 0.298-0.168 0.126-0.331 0.263-0.482 0.415-0.928 0.939-0.974 1.892-0.969 1.878 0.607-0.654 0.92-0.975 1.563-1.621 0.026-0.029 0.057-0.062 0.083-0.092 0.068 0.146 0.136 0.273 0.198 0.383-2.468 2.382-3.751 6.895-3.011 12.441 1.12 8.388 6.37 13.909 10.155 13.561 0.163-0.015 0.332-0.04 0.496-0.076 0.055 0.13 0.122 0.267 0.196 0.4 0.543 0.977 1.395 1.547 1.388 1.547 3e-3 -4e-3 -0.284-0.852-0.804-1.773-0.069-0.123-0.142-0.24-0.209-0.354 0.188-0.064 0.366-0.157 0.546-0.253 0.14 0.235 0.283 0.488 0.434 0.744 0.362 0.613 0.709 1.187 0.999 1.663-0.88 0.432-1.829 0.706-2.834 0.789-6.386 0.529-12.543-6.48-13.796-15.971zm21.662 26.055c-1.026 1.109-1.656 2.372-1.9 3.711-0.02 0.251-0.055 0.505-0.054 0.754-0.129-0.122-0.263-0.232-0.408-0.349-0.911-0.731-1.795-1.2-1.796-1.204-1e-3 -5e-3 0.44 0.854 1.376 1.597 0.3 0.238 0.608 0.438 0.886 0.603 0.021 0.233 0.037 0.469 0.08 0.702-0.115-0.076-0.229-0.158-0.345-0.237-1.069-0.728-1.91-1.383-1.915-1.39-0.013-0.015 0.362 1.027 1.538 1.801 0.308 0.202 0.619 0.377 0.902 0.52 0.053 0.19 0.102 0.375 0.169 0.56-0.268-0.229-0.559-0.471-0.87-0.72-1.309-1.046-2.604-1.621-2.604-1.615 7e-3 0 0.885 0.97 2.21 2.011 0.482 0.38 0.965 0.696 1.388 0.944-1.131-0.488-2.287-1.129-3.395-1.883-0.214-0.146-0.426-0.285-0.619-0.423-2.141-1.526-4.097-3.631-5.793-6.092-2.216-3.214-3.662-6.534-4.373-9.543 0.162 0.117 0.33 0.228 0.492 0.331 0.104 0.772 0.34 1.853 0.834 2.99 0.933 2.146 1.778 3.83 1.754 3.849 0.028 0-0.213-1.897-1.135-4.036-0.414-0.96-0.763-1.845-1.027-2.539 0.359 0.205 0.73 0.397 1.101 0.57 0.134 0.595 0.32 1.341 0.598 2.149 0.634 1.848 1.661 3.134 1.654 3.127-0.386-1.322-0.587-1.984-1.027-3.307-0.225-0.654-0.476-1.254-0.707-1.762 0.156 0.063 0.314 0.122 0.476 0.179 0.106 0.556 0.314 1.259 0.68 1.981 0.796 1.575 1.714 2.719 1.701 2.724 0.016 0-0.308-1.413-1.092-2.95-0.291-0.569-0.571-1.116-0.797-1.575 0.2 0.063 0.405 0.095 0.606 0.146 0.695 1.937 1.707 4.026 3.103 6.127 1.9 2.86 4.088 5.019 6.364 6.455 9e-3 -0.409 0.049-0.831 0.116-1.238 0.065-0.395 0.158-0.796 0.278-1.192-1.566-1.214-3.137-2.902-4.615-5.179-0.579-0.892-1.065-1.758-1.494-2.596 0.02-0.259 0.042-0.751-7e-3 -1.287-0.027-0.291-0.077-0.551-0.127-0.78 0.248-0.022 0.485-0.069 0.726-0.103 4e-3 0.253 0.015 0.54 0.046 0.844 0.096 0.942 0.41 1.698 0.41 1.698s0.313-0.827 0.219-1.797c-0.03-0.306-0.103-0.58-0.19-0.817 0.188-0.039 0.375-0.095 0.566-0.144-1e-3 0.081-4e-3 0.165 0 0.244 0.062 1.086 0.351 1.965 0.351 1.965s0.333-0.935 0.279-2.035c-6e-3 -0.114-0.017-0.222-0.023-0.33 0.19-0.062 0.377-0.138 0.567-0.209 1e-3 0.025-1e-3 0.044-2e-3 0.071 0.037 0.909 0.392 1.594 0.392 1.594s0.267-0.77 0.229-1.656c0-0.09-9e-3 -0.171-0.011-0.256 0.2-0.086 0.4-0.187 0.593-0.285-0.06 1.01 0.097 1.833 0.097 1.833s0.44-0.858 0.52-1.919c7e-3 -0.097 3e-3 -0.185 7e-3 -0.271 0.154-0.097 0.314-0.188 0.465-0.288 0.161 0.911 0.405 1.565 0.401 1.572 5e-3 0 0.252-0.897 0.144-1.977 0.208-0.165 0.413-0.328 0.611-0.507 0.312 1.313 0.728 2.294 0.72 2.302 0.01 3e-3 0.14-1.204-0.178-2.59-0.012-0.069-0.03-0.126-0.044-0.19 0.101-0.104 0.2-0.208 0.297-0.315 0.018 0.249 0.054 0.524 0.121 0.81 0.236 1.005 0.697 1.74 0.697 1.74s0.123-0.88-0.112-1.872c-0.098-0.411-0.235-0.784-0.36-1.083 0.056-0.07 0.115-0.133 0.17-0.2 0.093 0.078 0.181 0.158 0.269 0.241 5e-3 0.207 0.023 0.435 0.094 0.684 0.22 0.773 0.892 1.154 0.88 1.143-2e-3 -0.017-0.099-0.532-0.262-1.138 0.792 0.808 1.55 1.721 2.248 2.768 1.291 1.938 2.011 3.763 2.421 5.403-2.215 0.568-4.145 1.6-5.564 3.136zm11.539 18.256c-9.028-5.301-13.704-12.844-9.795-17.127 0.317-0.348 0.689-0.653 1.078-0.935-0.256 0.223-0.398 0.383-0.403 0.375 4e-3 0.017 1.014-0.361 2.085-0.887 0.545-0.268 1.076-0.465 1.457-0.588 0.014 0.123 0.015 0.233 0.025 0.351-0.359-7e-3 -0.855 0.063-1.34 0.281-1.044 0.472-1.573 1.195-1.581 1.181 4e-3 0.015 0.888-0.296 1.79-0.721 0.42-0.197 0.828-0.36 1.148-0.464 0.01 0.157 0.013 0.305 0.018 0.452-0.402-0.01-0.907 0.044-1.473 0.254-1.307 0.485-1.927 1.392-1.919 1.367 5e-3 0.011 0.976-0.471 2.084-0.89 0.474-0.18 0.933-0.32 1.308-0.413 0 0.153 2e-3 0.305-6e-3 0.454-0.074-0.026-0.168-0.05-0.296-0.057-0.355-0.036-0.885 0.101-1.337 0.39-0.928 0.594-1.108 1.426-1.093 1.401 3e-3 -0.01 0.633-0.52 1.401-0.997 0.386-0.239 0.742-0.442 1.03-0.538 0.108-0.036 0.2-0.057 0.282-0.07-6e-3 0.138-0.012 0.281-0.021 0.415-0.802 0.267-1.449 0.646-1.883 1.138-2.261 2.563 1.17 8.692 9.153 13.382s15.73 5.105 17.688 2.536c0.182-0.237 0.31-0.513 0.398-0.807 0.168 0.272 0.277 0.43 0.277 0.43 3e-3 5e-3 -0.047-0.352-0.182-0.894 0.068-0.508 0.023-1.073-0.134-1.691 0.507 1.059 0.934 1.854 0.938 1.862 0 8e-3 0.014-1.189-0.599-2.514-0.213-0.461-0.459-0.87-0.686-1.204-0.072-0.106-0.141-0.204-0.207-0.297 0.165-0.1 0.344-0.196 0.534-0.297 0.019 0.095 0.043 0.207 0.072 0.321 0.108 0.415 0.282 0.94 0.576 1.477 0.664 1.21 1.35 2.138 1.345 2.146 0.013 6e-3 -0.133-1.139-0.802-2.364-0.311-0.566-0.605-1.071-0.836-1.448-0.054-0.089-0.101-0.172-0.147-0.245 0.144-0.069 0.28-0.143 0.432-0.21 0.042 0.086 0.063 0.13 0.105 0.216 0.27 0.564 0.404 0.847 0.674 1.411 0.585 1.211 0.979 2.271 0.987 2.28-5e-3 0.011 0.175-1.173-0.438-2.482-0.266-0.567-0.61-1.042-0.918-1.379-0.05-0.055-0.1-0.111-0.143-0.16 0.201-0.092 0.408-0.176 0.631-0.266 0.018 0.041 0.041 0.078 0.061 0.122 0.201 0.391 0.459 0.876 0.765 1.378 0.252 0.413 0.487 0.806 0.68 1.147 0.454 1.864 0.226 3.585-0.826 4.966-3.272 4.302-12.926 3.515-21.957-1.788zm42.193 4.287c-0.749 0.362-1.402 0.701-1.844 0.942-2.648 0.632-5.656 1-8.881 1-2.816 0-5.468-0.278-7.862-0.767 0.071 5e-3 0.146 0.021 0.22 0.028 1.793 0.189 3.281 0.211 3.295 0.238 0.023-0.018-1.419-0.568-3.213-0.755-0.759-0.079-1.447-0.158-1.996-0.247 0.104-0.068 0.202-0.146 0.299-0.211 0.614 0.138 1.503 0.286 2.499 0.351 1.89 0.123 3.464-0.204 3.448-0.228-0.01 0.023-1.544-0.167-3.403-0.292-0.853-0.058-1.643-0.065-2.248-0.07 0.207-0.163 0.414-0.325 0.604-0.506 0.423 0.128 0.905 0.252 1.436 0.346 1.743 0.307 3.199 0.154 3.196 0.16-2e-3 -6e-3 -1.384-0.372-3.079-0.668-0.432-0.076-0.848-0.14-1.228-0.2 0.095-0.103 0.196-0.205 0.287-0.316 0.414 0.104 0.931 0.205 1.5 0.282 1.354 0.183 2.514 0.174 2.52 0.174 0 0-0.276-0.133-0.741-0.291 1.404 0.174 2.892 0.271 4.468 0.271 2.235 0 4.301-0.191 6.174-0.514-0.732 0.393-1.195 0.726-1.203 0.717 0 0.017 1.228-0.231 2.545-0.766 0.455-0.185 0.858-0.357 1.215-0.505 0.288 0.188 0.58 0.363 0.894 0.521-0.384-0.014-1.065 0.013-1.775 0.261-1.058 0.37-1.833 0.852-1.844 0.852-9e-3 8e-3 1 0.014 2.055-0.359 0.793-0.28 1.466-0.555 1.743-0.673 0.665 0.315 1.39 0.566 2.16 0.764-0.387 0.11-0.809 0.252-1.241 0.461zm19.849-6.589c-9.034 5.306-18.673 6.072-21.954 1.788-0.46-0.601-0.768-1.271-0.931-1.987 0.098-0.23 0.435-1.152 0.637-2.222 0.115-0.609 0.247-1.173 0.358-1.577 4e-3 -0.014 1e-3 -0.027 4e-3 -0.038 0.193 0.063 0.387 0.121 0.569 0.182-8e-3 9e-3 -0.017 0.021-0.025 0.031-0.2 0.229-0.411 0.533-0.561 0.915-0.349 0.889-0.176 1.684-0.183 1.673 7e-3 0 0.425-0.682 0.743-1.503 0.139-0.357 0.252-0.701 0.334-0.976 2e-3 -0.013 4e-3 -0.023 7e-3 -0.037 0.134 0.047 0.262 0.098 0.388 0.148-2e-3 4e-3 -3e-3 7e-3 -8e-3 0.014-0.222 0.348-0.469 0.854-0.605 1.449-0.277 1.208 0.176 2.197 0.178 2.176-4e-3 -9e-3 0.135-0.965 0.408-2.079 0.117-0.581 0.173-0.873 0.29-1.454 1e-3 -3e-3 4e-3 -5e-3 5e-3 -8e-3 0.055 0.021 0.115 0.044 0.17 0.063 0.074 0.027 0.146 0.049 0.221 0.07-0.163 0.323-0.332 0.758-0.409 1.268-0.164 1.082 0.147 1.969 0.146 1.964 2e-3 -4e-3 0.154-0.463 0.295-1.112 0.033 0.594 0.203 1.118 0.525 1.539 1.957 2.556 9.702 2.161 17.687-2.528 7.99-4.693 11.379-10.822 9.421-13.387-0.429-0.562-1.152-0.973-2.083-1.237-0.063-0.112-0.133-0.214-0.188-0.294-0.023-0.194-0.043-0.398-0.059-0.608 0.308 0.167 0.636 0.365 0.956 0.575 1.262 0.828 1.804 1.966 1.804 1.966-0.011 6e-3 0.02-0.306-0.145-0.788-0.162-0.476-0.595-1.112-1.298-1.587-0.467-0.315-0.934-0.505-1.358-0.635-0.014-0.192-0.026-0.376-0.039-0.551 0.457 0.165 1.025 0.422 1.547 0.846 1.135 0.86 1.895 1.824 1.912 1.808-0.016 0.031-0.24-1.219-1.527-2.206-0.633-0.485-1.403-0.709-1.948-0.74-3e-3 -0.127-9e-3 -0.245-0.014-0.362-7e-3 -0.194-0.015-0.373-0.021-0.538 0.023 0.016 0.038 0.024 0.062 0.04-5e-3 0.063-0.011 0.127-0.019 0.188v0.028c0.185 0.029 0.349 0.086 0.525 0.123 0.347 0.229 0.52 0.346 0.866 0.575 1.373 0.866 2.489 1.613 2.491 1.62 0.011 8e-3 -0.526-0.848-1.607-1.666 1.107 0.453 2.048 1.083 2.701 1.941 3.275 4.301-1.238 11.827-10.268 17.13zm12.19-18.261c-1.452-1.923-3.841-3.08-6.737-3.491 0.322-1.439 0.835-3.014 1.621-4.712 0.816-1.764 1.7-3.27 3.202-4.49 0.947 1.508 3.097 2.501 5.345 2.702 0.921 0.083 1.829 0.028 2.714-0.143-0.306 1.588-0.857 3.374-1.755 5.317-1.12 2.425-2.435 4.351-3.741 5.837-0.187-0.348-0.403-0.694-0.649-1.02zm9.389-3.043c-2.15 4.659-5.251 8.349-8.496 10.528 0.479-1.422 0.66-2.801 0.493-4.091 1.888-1.844 3.724-4.357 5.149-7.451 1.132-2.456 1.719-4.817 2.082-6.909 0.146-0.064 0.286-0.146 0.429-0.22-0.136 0.431-0.188 0.99-0.216 1.591-0.031 0.687-0.032 1.295-0.073 1.734-0.041 0.438-0.124 0.716-0.124 0.716-4e-3 0 0.224-0.225 0.414-0.658 0.178-0.404 0.324-0.999 0.365-1.638 0.155-0.276 0.375-0.767 0.428-1.345 0.028-0.314 0.043-0.604 0.056-0.849 0.226-0.135 0.456-0.293 0.685-0.445-0.143 0.492-0.314 1.151-0.476 1.878-0.336 1.515-0.683 2.781-0.694 2.787 6e-3 0.016 0.924-1.094 1.275-2.688 0.174-0.789 0.209-1.533 0.21-2.055 5e-3 -0.044-3e-3 -0.076-7e-3 -0.115 0.165-0.108 0.331-0.219 0.492-0.333-0.295 0.7-0.414 1.055-0.557 1.773-0.316 1.627-0.488 3.005-0.481 3.009-9e-3 0 0.771-1.246 1.071-2.921 0.154-0.859 0.288-1.62 0.382-2.166 0.119-0.084 0.235-0.168 0.358-0.259-0.805 2.947-1.104 6.528-2.765 10.127zm12.597-23.98c-2.402 9.18-12.476 15.55-18.113 15.028-1.303-0.12-2.402-0.631-3.016-1.438-0.013-0.117-0.016-0.246-0.019-0.377-7e-3 -0.352 0.017-0.686 0.058-0.955 0.115-0.069 0.227-0.128 0.345-0.198-0.045 0.045-0.083 0.084-0.11 0.128-0.236 0.324-0.35 0.739-0.205 1.09 0.123 0.361 0.484 0.573 0.804 0.649 0.324 0.077 0.589-9e-3 0.579 0 2e-3 -5e-3 -0.188-0.062-0.342-0.229-0.152-0.167-0.298-0.442-0.399-0.746-0.1-0.298-0.158-0.59-0.111-0.821 3e-3 -0.093 0.046-0.179 0.093-0.245 0.045-0.025 0.086-0.049 0.13-0.072 0.141-0.064 0.268-0.123 0.401-0.18-0.21 0.312-0.429 0.829-0.209 1.267 0.347 0.689 1.341 0.768 1.32 0.764-1e-3 -6e-3 -0.429-0.501-0.681-1.11-0.189-0.377-0.218-0.75-0.21-0.984 0.084 0 0.181-9e-3 0.295-0.046 0.018-9e-3 0.023-0.012 0.036-0.016 0.162-0.081 0.331-0.169 0.487-0.244-4e-3 0.022-0.016 0.047-0.025 0.073-0.059 0.193-0.076 0.399-0.041 0.592 0.14 0.764 1.033 0.965 1.022 0.957-2e-3 -8e-3 -0.257-0.598-0.35-1.272-0.023-0.17-0.043-0.34-0.055-0.493 1e-3 -0.043 3e-3 -0.076-1e-3 -0.113 0.099-0.049 0.188-0.09 0.283-0.133-0.022 0.052-0.046 0.111-0.065 0.169-0.064 0.186-0.117 0.398-0.099 0.6 0.032 0.34 0.227 0.623 0.57 0.688 0.132 0.024 0.278-0.015 0.396-0.063 0.182 0.088 0.389 0.148 0.621 0.172 3.062 0.303 12.679-4.56 14.845-12.705s1.052-15.828-0.804-16.328c-0.405-0.109-0.897 0.118-1.426 0.621 0.179-0.247 0.421-0.493 0.693-0.702 0.326-0.25 0.64-0.374 0.847-0.342 0.205 0.031 0.317 0.211 0.322 0.2-6e-3 0.017-0.02-0.284-0.242-0.491-0.219-0.202-0.62-0.207-1.012 0.091-0.338 0.257-0.614 0.672-0.772 1.069-0.013-0.101-0.021-0.216-0.031-0.334 0.233-0.285 0.552-0.597 0.904-0.89 0.404-0.336 0.787-0.59 1.063-0.711 0.28-0.123 0.459-0.101 0.46-0.109 0 9e-3 -0.146-0.164-0.448-0.186-0.294-0.021-0.733 0.11-1.178 0.477-0.338 0.278-0.631 0.65-0.841 1.017-0.021-0.226-0.035-0.479-0.053-0.716 0.222-0.258 0.537-0.458 0.906-0.628 0.391-0.181 0.772-0.355 1.041-0.537 0.268-0.181 0.431-0.362 0.43-0.358-0.178 0.029-0.267 0.044-0.444 0.073-0.267 0.038-0.646 0.07-1.073 0.259-0.347 0.153-0.675 0.455-0.894 0.808-0.012-0.196-0.024-0.399-0.037-0.599 0.021-0.012 0.042-0.026 0.063-0.043 0.27-0.179 0.659-0.323 1.075-0.452 0.522-0.161 1.019-0.354 1.3-0.488 3.223 0.987 4.298 10.467 1.917 19.562zm-2.321-11.641c-0.308 0.024-0.605 0.035-0.91 0.049-0.206-0.374-0.417-1.083-0.602-2.111 0.345-0.427 0.628-0.628 0.797-0.584 0.303 0.077 0.61 1.011 0.715 2.646zm33.556-1.852c-0.1-8.896-5.839-25.867 2.429-32.559-9.028 6.202-4.335 23.61-4.916 32.729-1.09 0.049-2.169 0.06-3.24 0.056 6.411-15.018-1.175-26.055-1.175-26.055s6.045 10.131-1.208 25.76c0.428 0.116 0.642 0.177 1.069 0.29-1.343-0.016-2.665-0.056-3.977-0.094 4.701-12.179 0.039-19.475 0.039-19.475s3.174 6.623-2.371 19.433c-0.857-0.016-1.703-0.05-2.553-0.049 3.205-10.281 0.674-15.621 0.674-15.621s1.376 4.944-2.609 15.658c-0.086 3e-3 -0.18 9e-3 -0.261 0.01-0.377 5e-3 -0.762 0.02-1.145 0.036-0.51 0.023-1.021 0.042-1.536 0.083 0.476-2.541 0.635-4.617 0.674-6.145 0.03-1.249 0.014-1.865-0.124-3.068 5e-3 1e-3 -0.164 1.005-0.66 2.962-0.394 1.554-1.006 3.766-1.867 6.435-1.664 0.19-3.361 0.483-4.73 0.697 2.054-3.504 4.1-7.971 3.946-12.108-0.324-8.77-4.662-13.92-7.705-16.979 0.029 0.906 0.047 1.346 0.082 2.211 0.365 0.443 0.734 0.966 1.102 1.546 0.179 0.37 0.27 0.553 0.457 0.912 0.694 1.341 1.221 2.452 1.229 2.453 0 7e-3 -0.03-0.21-0.117-0.556 1.392 2.792 2.726 5.929 2.887 10.421 0.128 3.559-1.338 7.411-2.919 10.521-0.028-0.055-0.06-0.089-0.063-0.094 5e-3 -6e-3 -0.037 0.032-0.084 0.087 0.277-0.593 0.666-1.43 1.04-2.375 0.721-1.822 0.905-3.338 0.898-3.331 1e-3 9e-3 -0.614 1.391-1.31 3.2-0.297 0.771-0.529 1.488-0.704 2.069-0.022-0.219-0.053-0.434-0.079-0.646 0.018-0.029 0.036-0.045 0.057-0.075 0.309-0.457 0.654-1.151 0.921-1.92 0.533-1.539 0.579-2.796 0.591-2.795-0.012-5e-3 -0.498 1.183-1 2.686-0.225 0.672-0.43 1.289-0.616 1.752-0.045-0.292-0.09-0.583-0.146-0.86 0.217-0.512 0.482-1.159 0.746-1.877 0.595-1.621 0.562-2.97 0.55-2.955 5e-3 8e-3 -0.13 0.453-0.359 1.144 0.212-1.272 0.114-2.159 0.12-2.154-8e-3 0-0.295 1.359-0.734 3.064-0.085 0.329-0.176 0.644-0.265 0.948 0.048-0.223 0.057-0.41 0.056-0.523 0.587-1.87 0.981-3.902 0.919-5.903-0.17-5.428-1.707-8.96-3.027-11.39 0.077 1.54 0.118 2.286 0.201 3.797 0.59 1.865 1.163 4.212 1.248 7.527 0.025 0.984-0.041 1.937-0.182 2.871-0.083 0.197-0.248 0.589-0.382 1.076-0.104 0.376-0.147 0.744-0.164 1-0.713-1.125-1.599-1.865-2.603-2.117-0.927-0.232-1.86-0.023-2.826 0.573-0.049-1.21-0.132-2.458-0.141-3.774-0.027-4.188 0.659-7.132 1.33-8.965-0.016-1.33-0.023-1.996-0.039-3.344-1.348 1.784-2.884 6.195-2.848 12.243 0.052 8.521 1.271 16.104 2.963 16.104-0.247 0.189-0.422 0.396-0.42 0.396 5e-3 -8e-3 0.368 0.104 0.838-0.085 0.175-0.07 0.327-0.193 0.467-0.316-2e-3 0.076-6e-3 0.153-8e-3 0.229-0.119 0.017-0.259 0.051-0.406 0.148-0.102 0.066-0.195 0.131-0.281 0.2-0.012 0-0.021-8e-3 -0.033-0.011-0.184-0.022-0.393 0.15-0.396 0.143-2e-3 -5e-3 0.018 0.104 0.063 0.207-0.058 0.059-0.1 0.1-0.103 0.1-5e-3 4e-3 0.08 0.058 0.222 0.064 0.032 0.035 0.072 0.059 0.117 0.064 0.132 0.019 0.255-0.084 0.336-0.167 0.029-0.018 0.059-0.026 0.086-0.046 0.145-0.093 0.269-0.197 0.386-0.292-7e-3 0.238-0.011 0.479-0.014 0.718h7e-3c-2e-3 0.04-3e-3 0.076-7e-3 0.118-9e-3 0-0.014 1e-3 -0.022 1e-3 -1e-3 -1e-3 1e-3 -3e-3 0-0.01 1e-3 -0.054 0-0.106-9e-3 -0.106-7e-3 0-0.017 0.03-0.026 0.071-0.112-0.098-0.415-0.246-0.749-0.219-0.427 0.034-0.775-0.026-0.782-0.053 2e-3 -4e-3 0.042 0.165 0.162 0.336 0.117 0.166 0.321 0.301 0.551 0.295 0.059-2e-3 0.108-0.02 0.163-0.037-0.128 0.131-0.239 0.3-0.308 0.473-7e-3 0.018-7e-3 0.025-0.011 0.039-0.387 3e-3 -0.676-0.052-0.68-0.045-4e-3 -0.018 0.343 0.636 0.964 0.599 0.261-0.016 0.499-0.173 0.69-0.341-2e-3 0.011-3e-3 0.017-6e-3 0.025-0.013 0.213-0.022 0.414-0.036 0.633h-0.016c3e-3 -0.057 3e-3 -0.085 4e-3 -0.129 0.01-0.096 0.02-0.192 0.031-0.287 3e-3 -0.057 4e-3 -0.108 5e-3 -0.158 1e-3 -0.011 8e-3 -0.021 9e-3 -0.025-0.392 0.291-0.763 0.459-1.126 0.471-2.693 0.089-4.87-9.492-4.958-19.148-0.047-5.19 1.329-9.739 2.798-12.566 0.2-0.251 0.471-0.61 0.742-1.039 0.155-0.145 0.403-0.349 0.684-0.575 0.461-0.372 0.71-0.964 0.696-0.973 0 0.017-0.2 0.065-0.483 0.221 0.233-0.226 0.466-0.419 0.7-0.554-0.013-0.869-0.021-1.307-0.037-2.196-3.063 1.005-7.252 8.426-7.119 17.687 0.063 4.39 0.756 9.153 1.695 12.855-0.273-0.816-0.535-1.66-0.743-2.541-0.466 0.894-0.923 1.861-1.358 2.885-0.094-0.012-0.191-0.019-0.286-0.024-0.053-0.911-0.065-1.824-0.081-2.645-0.03-1.551-0.062-2.917-0.161-3.997-0.2-2.169-0.615-3.229-0.604-3.229-0.012 4e-3 0.07 1.096-0.159 3.208-0.115 1.061-0.334 2.398-0.541 3.967-0.103 0.777-0.223 1.636-0.298 2.558-0.687-0.062-1.359-0.125-2.024-0.188-0.912-13.203-2.263-19.34-2.263-19.34s0.337 5.952 0.162 19.124c-0.63-0.068-1.25-0.146-1.864-0.219-0.523-14.865-2.037-20.911-2.037-20.911s0.666 5.88 0.044 20.652c-0.853-0.12-1.688-0.249-2.514-0.384 1.105-17.471-0.669-23.293-0.669-23.293s1.116 5.607-1.148 22.968c-0.232-0.04-0.469-0.082-0.705-0.127-0.32-0.062-0.646-0.127-0.974-0.187 1.468-19.814-1.739-25.198-1.739-25.198s2.471 5.129-0.173 24.776c-0.521-0.124-1.042-0.225-1.563-0.357 0.162-11.57-0.246-22.799 0.247-34.372 2.319 0.552 4.44 0.685 6.551 0.565 0.989-0.056 1.98-0.167 2.981-0.301 4.489-0.599 10.931-1.374 14.895-0.58h7e-3c6.611 1.327 8.637 2.224 21.634 1.771 1.465-0.051 2.982-0.104 4.556-0.144 6.41-0.162 13.812-0.257 18.789-0.928-12.347 7.748-5.181 23.447-6.393 35.072-0.5 0.07-0.993 0.112-1.492 0.157z" fill="#ffbf00"/>
		
	
</g>
</svg>
