<svg version="1.1" viewBox="0 0 687.76 107.74" xmlns="http://www.w3.org/2000/svg"><defs><clipPath id="clipPath34"><path d="m0 309h549v-309h-549z"/></clipPath><linearGradient id="linearGradient62" x2="1" gradientTransform="matrix(0 -80.802 -80.802 0 68.706 195)" gradientUnits="userSpaceOnUse"><stop stop-color="#ffbf00" offset="0"/><stop stop-color="#ffbf00" offset=".46455"/><stop stop-color="#ff65ac" offset="1"/></linearGradient><linearGradient id="linearGradient84" x2="1" gradientTransform="matrix(0 -80.802 -80.802 0 232.64 195)" gradientUnits="userSpaceOnUse"><stop stop-color="#ffbf00" offset="0"/><stop stop-color="#ffbf00" offset=".46455"/><stop stop-color="#ff65ac" offset="1"/></linearGradient><linearGradient id="linearGradient106" x2="1" gradientTransform="matrix(0 -80.802 -80.802 0 319.65 195)" gradientUnits="userSpaceOnUse"><stop stop-color="#ffbf00" offset="0"/><stop stop-color="#ffbf00" offset=".46455"/><stop stop-color="#ff65ac" offset="1"/></linearGradient><linearGradient id="linearGradient128" x2="1" gradientTransform="matrix(0 -80.802 -80.802 0 403.34 195)" gradientUnits="userSpaceOnUse"><stop stop-color="#ffbf00" offset="0"/><stop stop-color="#ffbf00" offset=".46455"/><stop stop-color="#ff65ac" offset="1"/></linearGradient><linearGradient id="linearGradient150" x2="1" gradientTransform="matrix(0 -80.802 -80.802 0 487.3 195)" gradientUnits="userSpaceOnUse"><stop stop-color="#ffbf00" offset="0"/><stop stop-color="#ffbf00" offset=".46455"/><stop stop-color="#ff65ac" offset="1"/></linearGradient><linearGradient id="linearGradient172" x2="1" gradientTransform="matrix(0 -80.804 -80.804 0 138.75 195)" gradientUnits="userSpaceOnUse"><stop stop-color="#ffbf00" offset="0"/><stop stop-color="#ffbf00" offset=".46455"/><stop stop-color="#ff65ac" offset="1"/></linearGradient></defs><g transform="matrix(1.3333 0 0 -1.3333 -21.851 260)"><g transform="translate(102.79 195)"><path d="m0 0-23.948-50.44-2.163-4.554h-0.722l-7.657 16.064-3.814 8.008-10.893 22.838-3.814 8.008-0.038 0.076h-25.96l0.038-0.076 3.966-8.008 11.329-22.838 3.976-8.008 20.761-41.872h24.507l40.06 80.802z" fill="#ffdc73"/></g><g transform="translate(275.77 174.29)"><path d="m0 0h-26.252v-60.092h-18.884v60.092h-26.337v20.71h71.473z" fill="#ffdc73"/></g><g transform="translate(363.52 195)"><path d="m0 0v-80.802h-18.882v31.234h-35.199v-31.234h-18.882v80.802h18.882v-29.65h35.199v29.65z" fill="#ffdc73"/></g><g transform="translate(397.19 164.1)"><path d="m0 0h43.231v-17.089h-43.231v-14.259h45.964v-18.56h-64.847v80.803h63.937v-18.447h-45.054z" fill="#ffdc73"/></g><g clip-path="url(#clipPath34)"><g transform="translate(508.23 160.48)"><path d="m0 0c1.077 1.358 1.615 3.432 1.615 6.224 0 2.79-0.538 4.846-1.615 6.168-1.076 1.319-2.83 1.981-5.259 1.981h-26.916v-16.41h26.916c2.429 0 4.183 0.679 5.259 2.037m23.977-46.286h-21.948l-11.345 25.915h-22.859v-25.915h-18.883v80.802h50.355c8.17 0 14.079-2.189 17.723-6.564 3.644-4.376 5.465-11.053 5.465-20.03 0-6.867-1.104-12.053-3.312-15.562-2.209-3.507-5.356-5.941-9.442-7.298v-0.906z" fill="#ffdc73"/></g><g transform="translate(189.18 132.76)"><path d="m0 0h-55.791l7.083 14.259h45.975v17.089h-37.488l6.183 12.448h33.127v18.447h-45.054v-2e-3l-10.091-20.316-7.748-15.615-9.294-18.713-6.773-13.634-6.217-12.525h21.078l1e-3 2e-3h65.009z" fill="#ffdc73"/></g></g><path d="m95.396 195-23.948-50.439-2.162-4.555h-0.722l-7.657 16.063-3.815 8.008-10.891 22.839-3.816 8.008-0.037 0.076h-25.96l0.038-0.076 3.965-8.008 11.33-22.839 3.976-8.008 20.76-41.871h24.508l40.06 80.802z" fill="url(#linearGradient62)"/><path d="m196.91 195v-20.71h26.335v-60.092h18.884v60.092h26.253v20.71z" fill="url(#linearGradient84)"/><path d="m337.25 195v-29.649h-35.198v29.649h-18.883v-80.802h18.883v31.235h35.198v-31.235h18.882v80.802z" fill="url(#linearGradient106)"/><path d="m370.92 195v-80.802h64.848v18.56h-45.965v14.259h43.232v17.089h-43.232v12.448h45.053v18.446z" fill="url(#linearGradient128)"/><path d="m449.78 195v-80.802h18.883v25.915h22.858l11.346-25.915h21.947l-14.245 30.443v0.905c4.086 1.357 7.234 3.791 9.442 7.298 2.207 3.509 3.312 8.695 3.312 15.562 0 8.977-1.821 15.655-5.466 20.031-3.643 4.374-9.553 6.563-17.723 6.563zm18.883-20.143h26.916c2.429 0 4.183-0.662 5.259-1.981 1.077-1.322 1.615-3.377 1.615-6.167 0-2.793-0.538-4.866-1.615-6.225-1.076-1.358-2.83-2.037-5.259-2.037h-26.916z" fill="url(#linearGradient150)"/><path d="m135.82 195v-1e-3l-10.09-20.316-7.748-15.615-9.295-18.714-6.772-13.633-6.217-12.524h21.078v1e-3h65.009v18.56h-55.79l7.082 14.259h45.975v17.089h-37.487l6.183 12.448h33.126v18.446z" fill="url(#linearGradient172)"/></g></svg>
